<svg xmlns="http://www.w3.org/2000/svg" width="920" height="220" viewBox="0 0 920 220" fill="none">
  <defs>
    <linearGradient id="g" x1="80" y1="40" x2="200" y2="180" gradientUnits="userSpaceOnUse">
      <stop stop-color="#16a34a"/>
      <stop offset="1" stop-color="#22c55e"/>
    </linearGradient>
    <filter id="shadow" x="-20%" y="-20%" width="140%" height="140%">
      <feDropShadow dx="0" dy="8" stdDeviation="10" flood-opacity="0.18"/>
    </filter>
  </defs>

  <!-- icon -->
  <g filter="url(#shadow)">
    <rect x="36" y="36" width="148" height="148" rx="36" fill="url(#g)"/>
    <!-- chat bubbles -->
    <path d="M88 86c0-18.2 14.8-33 33-33h17c18.2 0 33 14.8 33 33v20c0 18.2-14.8 33-33 33h-14.2l-16.7 12.6c-2.3 1.8-5.7.1-5.7-2.9V139c-8.1-5.8-13.4-15.3-13.4-26V86z" fill="#ffffff" fill-opacity="0.96"/>
    <path d="M64 120c0-14.9 12.1-27 27-27h10c14.9 0 27 12.1 27 27v16c0 14.9-12.1 27-27 27h-7.8l-12.4 9.3c-2 1.5-4.9.1-4.9-2.4V163c-7.3-4.9-12-13.2-12-22.6V120z" fill="#0f172a" fill-opacity="0.12"/>
    <!-- dots -->
    <circle cx="114" cy="96" r="6" fill="#16a34a"/>
    <circle cx="132" cy="96" r="6" fill="#16a34a"/>
    <circle cx="150" cy="96" r="6" fill="#16a34a"/>
  </g>

  <!-- wordmark -->
  <g>
    <text x="220" y="98" font-family="ui-sans-serif, system-ui, -apple-system, Segoe UI, Roboto, Helvetica, Arial" font-size="44" font-weight="800" fill="#0f172a">
      wechat-auto-reply
    </text>
    <text x="220" y="142" font-family="ui-sans-serif, system-ui, -apple-system, Segoe UI, Roboto, Helvetica, Arial" font-size="18" font-weight="500" fill="#334155">
      Browser-based WeChat Web automation + LangBot (wechat08) gateway
    </text>
  </g>
</svg>
